<svg width="653" height="652" viewBox="0 0 653 652" fill="none" xmlns="http://www.w3.org/2000/svg">
<path d="M468.889 645.08C468.889 645.08 468.889 645.269 469.241 645.08C507.408 547 512.459 446.706 474.389 350.769C422.858 220.776 312.408 181 289.486 0.048053C289.493 -0.00739983 289.437 -0.0138632 289.431 0.0415896C260.453 248.769 505.889 314.269 468.889 645.08Z" fill="#F9F9F9"/>
<path d="M478.631 641.5C478.635 641.63 478.822 641.529 478.82 641.399C551.13 546.5 560.93 453.683 544.131 363.5C515.631 210.5 418.404 152.563 446.406 6.0011C446.361 5.93985 446.35 5.93916 446.357 5.93919C378.907 220.062 600.642 404.63 478.631 641.5Z" fill="#F9F9F9"/>
<path d="M494.912 634.476C494.645 634.838 495.409 634.475 495.409 634.475C573.404 565.89 623.694 467.83 613.054 361.392C601.057 241.391 573.68 248.963 573.68 72.5618C573.687 72.5063 573.638 72.4444 573.631 72.4999C513.072 346.963 652.355 420.894 494.912 634.476Z" fill="#F9F9F9"/>
<path d="M458.317 648.5C458.317 648.5 458.317 648.609 458.817 648.5C476.617 551.203 442.543 432.833 380.908 350C267.514 208.118 210.812 235 140.107 73.4316C140.058 73.3697 140.002 73.3632 140.051 73.4251C180.376 316.49 438.408 362 458.317 648.5Z" fill="#F9F9F9"/>
<path d="M448.494 651.5C448.494 651.5 448.705 651.888 448.908 651.5C441.408 544.5 403.352 475.763 325.908 407.5C229.908 330 155.408 341.689 46.0521 204.788C46.0031 204.726 45.9476 204.72 45.9966 204.782C105.408 366.5 365.408 392 448.494 651.5Z" fill="#F9F9F9"/>
</svg>
